<svg xmlns="http://www.w3.org/2000/svg" viewBox="0 0 677.5 146.5"><defs><style>.a{fill:#8bc53f;}.b{fill:#626467;}.c{fill:#221f1f;}</style></defs><title>chalkreport</title><path class="a" d="M170.4,67.9V67.7c0-14.7,11.3-27,27.7-27,10.6,0,17.7,4.6,22.1,11.5L208,61.4c-2.6-3.4-5.4-5.5-9.7-5.5-5.9,0-10.2,5.3-10.2,11.6v0.2c0,6.7,4.2,11.8,10.3,11.8,4.4,0,7.2-2,10-5.4L220.5,83c-4.8,7.1-11.7,11.9-23,11.9A26.7,26.7,0,0,1,170.4,67.9Z"/><path class="a" d="M223.1,23.7h18.2V48.9c3.4-4.3,8.1-8.2,15.5-8.2,11,0,17.6,7.3,17.6,19.1V93.6H256.3V65.5c0-5.7-3-8.8-7.4-8.8s-7.7,3.1-7.7,8.8V93.6H223.1V23.7Z"/><path class="a" d="M277.5,78.8V78.6c0-10.8,8.1-16.3,20.3-16.3a37.1,37.1,0,0,1,12.5,2V63.4c0-5.5-3.4-8.5-10.3-8.5a39.2,39.2,0,0,0-14.4,2.9L281.8,45a52.1,52.1,0,0,1,21-4c9.3,0,15.6,2.2,19.7,6.3s5.6,9.2,5.6,16.5V93.6H310.1V88.1a20,20,0,0,1-15.3,6.6C285,94.8,277.5,89,277.5,78.8Zm32.9-3.9V72.4a20,20,0,0,0-7.2-1.3c-5.3,0-8.3,2.5-8.3,6.4v0.2c0,3.5,2.7,5.7,6.4,5.7C306.7,83.4,310.4,80,310.4,74.8Z"/><path class="a" d="M334,23.7h18.1V93.6H334V23.7Z"/><path class="a" d="M358.5,23.7h18.2V59.1l14.1-17.3h20.6l-18,20.7,18.5,31.1H391.7L381.4,75.9l-4.7,5.5V93.6H358.5V23.7Z"/><path class="b" d="M415.8,44.1h7.4V57c3.6-8.2,10.8-14.2,20.2-13.8v7.9h-0.6c-10.8,0-19.6,7.8-19.6,22.7V93.6h-7.4V44.1Z"/><path class="b" d="M443.6,69V68.8c0-14.3,10.1-25.8,23.8-25.8s23.1,11.7,23.1,26.1a19.3,19.3,0,0,1-.1,2.4H451.1c1.1,10.7,8.6,16.8,17.4,16.8,6.8,0,11.6-2.8,15.6-7l4.6,4.1c-5,5.6-11,9.3-20.4,9.3C454.8,94.8,443.6,84.3,443.6,69ZM483,66.1c-0.8-9-5.9-16.9-15.8-16.9s-15.1,7.2-16.1,16.9H483Z"/><path class="b" d="M494.7,44.1H502V54c4-5.9,9.9-11,19-11,11.9,0,23.7,9.4,23.7,25.7v0.2c0,16.2-11.7,25.8-23.7,25.8-9.2,0-15.1-5-19-10.5v24.8h-7.4V44.1ZM537.1,69V68.8c0-11.7-8-19.2-17.4-19.2s-17.9,7.8-17.9,19.1v0.2c0,11.5,8.7,19.2,17.9,19.2S537.1,81,537.1,69Z"/><path class="b" d="M548.4,69.1V68.9a25.8,25.8,0,0,1,51.6-.2v0.2a25.7,25.7,0,0,1-26,25.9A25.4,25.4,0,0,1,548.4,69.1Zm44.1,0V68.9c0-10.6-7.9-19.3-18.4-19.3S556,58.3,556,68.7v0.2c0,10.6,7.9,19.3,18.3,19.3S592.5,79.5,592.5,69.1Z"/><path class="b" d="M603.8,44.1h7.4V57c3.6-8.2,10.8-14.2,20.2-13.8v7.9h-0.6c-10.8,0-19.6,7.8-19.6,22.7V93.6h-7.4V44.1Z"/><path class="b" d="M643.2,80.5V50.6h-6.9V44.1h6.9V29.1h7.4V44.1h15.7v6.5H650.6V79.5c0,6,3.4,8.2,8.3,8.2a15.5,15.5,0,0,0,7.2-1.7v6.3a18.6,18.6,0,0,1-8.9,2.1C649.3,94.5,643.2,90.5,643.2,80.5Z"/><path class="b" d="M182.9,137.2h5.9a0.9,0.9,0,1,1,0,1.8h-6.7a1,1,0,0,1-1.2-1V120.7a1,1,0,0,1,1.2-1h6.4a0.9,0.9,0,1,1,0,1.8h-5.6v7h5.4a0.9,0.9,0,1,1,0,1.8h-5.4v6.9Z"/><path class="b" d="M203.6,119.3a1,1,0,1,1,1.9,0v18.6a1,1,0,1,1-1.9,0V137h-0.1a4.5,4.5,0,0,1-4,2.1c-4.1,0-6.2-3.3-6.2-7.4s2-7.4,6.1-7.4a4.8,4.8,0,0,1,4,2.1h0.1v-7.2Zm-4.1,18.2c3,0,4.1-3.1,4.1-5.7s-1-5.7-4.1-5.7-4.1,3.1-4.1,5.7S196.5,137.5,199.5,137.5Z"/><path class="b" d="M210.2,125.6a1,1,0,1,1,1.9,0v8.1c0,2.5,1.3,3.8,3.5,3.8s3.5-1.3,3.5-3.8v-8.1a1,1,0,1,1,1.9,0v8.6c0,3.1-2.4,4.9-5.5,4.9s-5.5-1.8-5.5-4.9v-8.6Z"/><path class="b" d="M234.1,136.6a0.8,0.8,0,0,1,.8.8c0,1.2-1.8,1.8-3.7,1.8-4.1,0-6.2-3.7-6.2-7.4s2.4-7.4,6.4-7.4c1.8,0,3.6.7,3.6,1.5A1,1,0,0,1,234,127c-0.5,0-1-.8-2.7-0.8s-4.1,3.1-4.1,5.4,1.5,5.7,4.1,5.7S233.6,136.6,234.1,136.6Z"/><path class="b" d="M248.4,125.6a1,1,0,1,1,1.9,0v12.2a1,1,0,1,1-1.9,0V137h-0.1a4.5,4.5,0,0,1-4,2.1c-4.1,0-6.2-3.3-6.2-7.4s2-7.4,6.1-7.4a4.8,4.8,0,0,1,4,2.1h0.1v-0.9Zm-4.1,11.8c3,0,4.1-3.1,4.1-5.7s-1-5.7-4.1-5.7-4.1,3.1-4.1,5.7S241.3,137.5,244.3,137.5Z"/><path class="b" d="M257.4,137.9a1,1,0,1,1-1.9,0V126.2h-1.3a0.8,0.8,0,1,1,0-1.6h1.3v-3.2a1,1,0,1,1,1.9,0v3.2h1.3a0.8,0.8,0,1,1,0,1.6h-1.3v11.7Z"/><path class="b" d="M263.5,119.5a1.3,1.3,0,1,1-1.3,1.3A1.3,1.3,0,0,1,263.5,119.5Zm1,18.3a1,1,0,1,1-1.9,0V125.6a1,1,0,1,1,1.9,0v12.2Z"/><path class="b" d="M274.6,139.1c-4.1,0-6.2-3.3-6.2-7.4s2-7.4,6.2-7.4,6.2,3.7,6.2,7.4S278.7,139.1,274.6,139.1Zm0-1.6c3,0,4.1-3.1,4.1-5.7s-1.1-5.7-4.1-5.7-4.1,3.1-4.1,5.7S271.6,137.5,274.6,137.5Z"/><path class="b" d="M286.7,137.9a1,1,0,1,1-1.9,0V125.6a1,1,0,1,1,1.9,0v0.7h0.1a4.4,4.4,0,0,1,3.8-1.9,5,5,0,0,1,5.2,5.1v8.3a1,1,0,1,1-1.9,0v-8.4a3.2,3.2,0,0,0-3.5-3.3,3.5,3.5,0,0,0-3.5,3.8v7.9Z"/><path class="b" d="M309.8,125.6a1,1,0,1,1,1.9,0v12.2a1,1,0,1,1-1.9,0V137h-0.1a4.5,4.5,0,0,1-4,2.1c-4.1,0-6.2-3.3-6.2-7.4s2-7.4,6.1-7.4a4.8,4.8,0,0,1,4,2.1h0.1v-0.9Zm-4.1,11.8c3,0,4.1-3.1,4.1-5.7s-1-5.7-4.1-5.7-4.1,3.1-4.1,5.7S302.7,137.5,305.8,137.5Z"/><path class="b" d="M318.4,137.9a1,1,0,1,1-1.9,0V119.3a1,1,0,1,1,1.9,0v18.6Z"/><path class="b" d="M339,136.6a0.8,0.8,0,0,1,.8.8c0,1.2-1.8,1.8-3.7,1.8-4.1,0-6.2-3.7-6.2-7.4s2.4-7.4,6.4-7.4c1.8,0,3.6.7,3.6,1.5a1,1,0,0,1-1.1,1.1c-0.5,0-1-.8-2.7-0.8s-4.1,3.1-4.1,5.4,1.5,5.7,4.1,5.7S338.4,136.6,339,136.6Z"/><path class="b" d="M349.2,139.1c-4.1,0-6.2-3.3-6.2-7.4s2-7.4,6.2-7.4,6.2,3.7,6.2,7.4S353.3,139.1,349.2,139.1Zm0-1.6c3,0,4.1-3.1,4.1-5.7s-1.1-5.7-4.1-5.7-4.1,3.1-4.1,5.7S346.1,137.5,349.2,137.5Z"/><path class="b" d="M369.7,137.9a1,1,0,1,1-1.9,0v-7.9c0-3.2-1.7-3.8-3.2-3.8a3.5,3.5,0,0,0-3.3,3.8v7.9a1,1,0,1,1-1.9,0V125.6a1,1,0,1,1,1.9,0v0.7h0.1a4.4,4.4,0,0,1,3.8-1.9,4,4,0,0,1,3.8,2.5,5,5,0,0,1,9.4,2.6v8.3a1,1,0,1,1-1.9,0v-7.9c0-3.2-1.7-3.8-3.2-3.8a3.5,3.5,0,0,0-3.3,3.8v7.9Z"/><path class="b" d="M393.3,137.9a1,1,0,1,1-1.9,0v-7.9c0-3.2-1.7-3.8-3.2-3.8a3.5,3.5,0,0,0-3.3,3.8v7.9a1,1,0,1,1-1.9,0V125.6a1,1,0,1,1,1.9,0v0.7h0.1a4.4,4.4,0,0,1,3.8-1.9,4,4,0,0,1,3.8,2.5,5,5,0,0,1,9.4,2.6v8.3a1,1,0,1,1-1.9,0v-7.9c0-3.2-1.7-3.8-3.2-3.8a3.5,3.5,0,0,0-3.3,3.8v7.9Z"/><path class="b" d="M406.4,125.6a1,1,0,1,1,1.9,0v8.1c0,2.5,1.3,3.8,3.5,3.8s3.5-1.3,3.5-3.8v-8.1a1,1,0,1,1,1.9,0v8.6c0,3.1-2.4,4.9-5.5,4.9s-5.5-1.8-5.5-4.9v-8.6Z"/><path class="b" d="M424,137.9a1,1,0,1,1-1.9,0V125.6a1,1,0,1,1,1.9,0v0.7H424a4.4,4.4,0,0,1,3.8-1.9,5,5,0,0,1,5.2,5.1v8.3a1,1,0,1,1-1.9,0v-8.4a3.2,3.2,0,0,0-3.5-3.3,3.5,3.5,0,0,0-3.5,3.8v7.9Z"/><path class="b" d="M438.6,119.5a1.3,1.3,0,1,1-1.3,1.3A1.3,1.3,0,0,1,438.6,119.5Zm1,18.3a1,1,0,1,1-1.9,0V125.6a1,1,0,1,1,1.9,0v12.2Z"/><path class="b" d="M452.6,136.6a0.8,0.8,0,0,1,.8.8c0,1.2-1.8,1.8-3.7,1.8-4.1,0-6.2-3.7-6.2-7.4s2.4-7.4,6.4-7.4c1.8,0,3.6.7,3.6,1.5a1,1,0,0,1-1.1,1.1c-0.5,0-1-.8-2.7-0.8s-4.1,3.1-4.1,5.4,1.5,5.7,4.1,5.7S452.1,136.6,452.6,136.6Z"/><path class="b" d="M466.8,125.6a1,1,0,1,1,1.9,0v12.2a1,1,0,1,1-1.9,0V137h-0.1a4.5,4.5,0,0,1-4,2.1c-4.1,0-6.2-3.3-6.2-7.4s2-7.4,6.1-7.4a4.8,4.8,0,0,1,4,2.1h0.1v-0.9Zm-4.1,11.8c3,0,4.1-3.1,4.1-5.7s-1-5.7-4.1-5.7-4.1,3.1-4.1,5.7S459.7,137.5,462.8,137.5Z"/><path class="b" d="M475.9,137.9a1,1,0,1,1-1.9,0V126.2h-1.3a0.8,0.8,0,1,1,0-1.6h1.3v-3.2a1,1,0,1,1,1.9,0v3.2h1.3a0.8,0.8,0,1,1,0,1.6h-1.3v11.7Z"/><path class="b" d="M482,119.5a1.3,1.3,0,1,1-1.3,1.3A1.3,1.3,0,0,1,482,119.5Zm1,18.3a1,1,0,1,1-1.9,0V125.6a1,1,0,1,1,1.9,0v12.2Z"/><path class="b" d="M493.1,139.1c-4.1,0-6.2-3.3-6.2-7.4s2-7.4,6.2-7.4,6.2,3.7,6.2,7.4S497.2,139.1,493.1,139.1Zm0-1.6c3,0,4.1-3.1,4.1-5.7s-1.1-5.7-4.1-5.7-4.1,3.1-4.1,5.7S490,137.5,493.1,137.5Z"/><path class="b" d="M505.1,137.9a1,1,0,1,1-1.9,0V125.6a1,1,0,1,1,1.9,0v0.7h0.1a4.4,4.4,0,0,1,3.8-1.9,5,5,0,0,1,5.2,5.1v8.3a1,1,0,1,1-1.9,0v-8.4a3.2,3.2,0,0,0-3.5-3.3,3.5,3.5,0,0,0-3.5,3.8v7.9Z"/><path class="b" d="M520.2,136.6a1.2,1.2,0,1,1-1.2,1.2A1.3,1.3,0,0,1,520.2,136.6Z"/><path class="b" d="M535.8,137.2h5.9a0.9,0.9,0,1,1,0,1.8h-6.7a1,1,0,0,1-1.2-1V120.7a1,1,0,0,1,1.2-1h6.4a0.9,0.9,0,1,1,0,1.8h-5.6v7h5.4a0.9,0.9,0,1,1,0,1.8h-5.4v6.9Z"/><path class="b" d="M554.5,125.3a1.1,1.1,0,0,1,1-.9,0.9,0.9,0,0,1,.9.9,1.6,1.6,0,0,1-.1.6L552,138.4a1.1,1.1,0,0,1-2,0l-4.3-12.5a1.6,1.6,0,0,1-.1-0.6,0.9,0.9,0,0,1,.9-0.9,1.1,1.1,0,0,1,1,.9l3.5,10.4H551Z"/><path class="b" d="M561,132.6c0.1,2.5,1.8,4.9,4.3,4.9s3.9-2.2,4.8-2.2a0.8,0.8,0,0,1,.9.9c0,0.9-2.2,2.9-5.6,2.9s-6.5-3.7-6.5-7.4,2.1-7.4,6.2-7.4,6.1,3.4,6.1,7a1.1,1.1,0,0,1-1.3,1.2H561Zm8.1-1.6c-0.1-2.4-1.4-5-4.1-5s-4,2.6-4.1,5h8.1Z"/><path class="b" d="M576.7,137.9a1,1,0,1,1-1.9,0V125.6a1,1,0,1,1,1.9,0V127h0.1a3.8,3.8,0,0,1,3.2-2.6,1.1,1.1,0,0,1,1.3,1.1c0,0.5-.4.8-1.3,1.1a4,4,0,0,0-3.2,4.4v7Z"/><path class="b" d="M583.4,125.9a1.6,1.6,0,0,1-.1-0.6,0.9,0.9,0,0,1,.9-0.9,1.1,1.1,0,0,1,1,.9l3.5,10.4h0.1l3.5-10.4a1.1,1.1,0,0,1,1-.9,0.9,0.9,0,0,1,.9.9,1.6,1.6,0,0,1-.1.6l-6.2,18a1.1,1.1,0,0,1-1.1,1,0.8,0.8,0,0,1-.9-0.8,2.1,2.1,0,0,1,.2-0.8l1.8-4.6Z"/><path class="b" d="M604.5,125.3a1.1,1.1,0,0,1,2.2,0l3.3,10.7h0.1l3.4-10.7a1.1,1.1,0,0,1,1.1-.9,0.9,0.9,0,0,1,.9.9,2.8,2.8,0,0,1-.2.7l-4.1,12.2a1.1,1.1,0,0,1-1.1.9c-0.5,0-.9-0.2-1.2-1.2l-3.3-10.5h-0.1l-3.4,10.8a1.1,1.1,0,0,1-1.1.9,1.2,1.2,0,0,1-1.1-.9L595.9,126a2.8,2.8,0,0,1-.2-0.7,0.9,0.9,0,0,1,.9-0.9,1.1,1.1,0,0,1,1.1.9l3.4,10.7h0.1Z"/><path class="b" d="M620.5,137.9a1,1,0,1,1-1.9,0V119.3a1,1,0,1,1,1.9,0v7h0.1a4.4,4.4,0,0,1,3.8-1.9,5,5,0,0,1,5.2,5.1v8.3a1,1,0,1,1-1.9,0v-8.4a3.2,3.2,0,0,0-3.5-3.3,3.5,3.5,0,0,0-3.5,3.8v7.9Z"/><path class="b" d="M635.5,132.6c0.1,2.5,1.8,4.9,4.3,4.9s3.9-2.2,4.8-2.2a0.8,0.8,0,0,1,.9.9c0,0.9-2.2,2.9-5.6,2.9s-6.5-3.7-6.5-7.4,2.1-7.4,6.2-7.4,6.1,3.4,6.1,7a1.1,1.1,0,0,1-1.3,1.2h-8.9Zm8.1-1.6c-0.1-2.4-1.4-5-4.1-5s-4,2.6-4.1,5h8.1Z"/><path class="b" d="M651.2,137.9a1,1,0,1,1-1.9,0V125.6a1,1,0,1,1,1.9,0V127h0.1a3.8,3.8,0,0,1,3.2-2.6,1.1,1.1,0,0,1,1.3,1.1c0,0.5-.4.8-1.3,1.1a4,4,0,0,0-3.2,4.4v7Z"/><path class="b" d="M660.2,132.6c0.1,2.5,1.8,4.9,4.3,4.9s3.9-2.2,4.8-2.2a0.8,0.8,0,0,1,.9.9c0,0.9-2.2,2.9-5.6,2.9s-6.5-3.7-6.5-7.4,2.1-7.4,6.2-7.4,6.1,3.4,6.1,7a1.1,1.1,0,0,1-1.3,1.2h-8.9Zm8.1-1.6c-0.1-2.4-1.4-5-4.1-5s-4,2.6-4.1,5h8.1Z"/><path class="c" d="M131.3,56.7l-5.8-30.6c-33-5.3-57.5-5.4-91.3,0L28.4,56.8a65.6,65.6,0,0,1,8-2.1,235.6,235.6,0,0,1,86.6,0ZM0,92.6L8.1,68.5a3.5,3.5,0,0,1,.2-5.8V16.3l-6.9-2L79.8,0l78.4,14.3-31.8,9.4c-34.3-5.5-59.4-5.4-93.2,0L12.1,17.5V62.7a3.5,3.5,0,0,1,.2,5.8l8.1,24.2H16.9L11.2,69.1l3.7,23.6H9.5l0.7-23.4L8.7,92.6H4L8.9,69,2.3,92.6H0Z"/><path class="a" d="M114.6,127.7s-0.9-4.6-1.4-8.2A54.3,54.3,0,0,0,134,76.7a49.6,49.6,0,0,0-2.5-15.9l-1.1-.3-8.3-2a234.1,234.1,0,0,0-85.6.1,63.8,63.8,0,0,0-7.7,2l-1.3.4a52,52,0,0,0-2.4,15.7A54.5,54.5,0,0,0,93,129.5l4.3,3.7a66.8,66.8,0,0,0,33.5,13.3A32.3,32.3,0,0,1,114.6,127.7Z"/><path class="b" d="M675,137.9a1.2,1.2,0,1,1,1.2,1.2,1.3,1.3,0,0,1-1.2-1.2"/></svg>